<svg width="24" height="24" viewBox="0 0 24 24" fill="none" xmlns="http://www.w3.org/2000/svg">
<path d="M12 1.998C17.524 1.998 22.002 6.476 22.002 12C22.002 17.523 17.524 22 12 22C6.47605 22.001 1.99805 17.523 1.99805 12C1.99805 6.476 6.47605 1.998 12 1.998ZM12 3.498C10.8759 3.48581 9.76041 3.6967 8.71827 4.11847C7.67612 4.54024 6.72798 5.16452 5.92871 5.95517C5.12944 6.74582 4.49492 7.68713 4.06187 8.72464C3.62882 9.76215 3.40584 10.8752 3.40584 11.9995C3.40584 13.1238 3.62882 14.2369 4.06187 15.2744C4.49492 16.3119 5.12944 17.2532 5.92871 18.0438C6.72798 18.8345 7.67612 19.4588 8.71827 19.8805C9.76041 20.3023 10.8759 20.5132 12 20.501C14.2388 20.4767 16.3776 19.5703 17.9522 17.9786C19.5267 16.3869 20.4098 14.2384 20.4098 11.9995C20.4098 9.7606 19.5267 7.61207 17.9522 6.02037C16.3776 4.42866 14.2388 3.52228 12 3.498ZM8.46205 14.783C8.88295 15.3188 9.42021 15.7518 10.0332 16.0492C10.6461 16.3467 11.3187 16.5009 12 16.5C12.6806 16.5008 13.3525 16.347 13.9649 16.05C14.5773 15.7531 15.1142 15.3209 15.535 14.786C15.5961 14.7087 15.6718 14.6442 15.7578 14.5962C15.8438 14.5482 15.9384 14.5175 16.0362 14.5061C16.134 14.4946 16.2332 14.5025 16.3279 14.5294C16.4227 14.5562 16.5113 14.6014 16.5885 14.6625C16.6658 14.7236 16.7303 14.7993 16.7784 14.8852C16.8264 14.9712 16.857 15.0658 16.8685 15.1637C16.88 15.2615 16.872 15.3606 16.8452 15.4554C16.8184 15.5502 16.7731 15.6387 16.712 15.716C16.1508 16.4286 15.435 17.0044 14.6188 17.4001C13.8026 17.7957 12.9071 18.0008 12 18C11.0918 18.0007 10.1953 17.795 9.37826 17.3982C8.56124 17.0015 7.84512 16.4242 7.28405 15.71C7.22048 15.6329 7.17295 15.5439 7.14425 15.4482C7.11555 15.3525 7.10626 15.2521 7.11692 15.1527C7.12758 15.0534 7.15799 14.9572 7.20635 14.8698C7.2547 14.7823 7.32004 14.7055 7.39852 14.6436C7.477 14.5818 7.56704 14.5363 7.66336 14.5097C7.75967 14.4832 7.86032 14.4762 7.95939 14.4891C8.05847 14.5019 8.15397 14.5345 8.24028 14.5848C8.3266 14.6351 8.402 14.7022 8.46205 14.782V14.783ZM9.00005 8.75C9.16711 8.74527 9.33342 8.7741 9.48915 8.83476C9.64488 8.89543 9.78686 8.98671 9.90669 9.10321C10.0265 9.2197 10.1218 9.35904 10.1868 9.51299C10.2519 9.66694 10.2854 9.83237 10.2854 9.9995C10.2854 10.1666 10.2519 10.3321 10.1868 10.486C10.1218 10.64 10.0265 10.7793 9.90669 10.8958C9.78686 11.0123 9.64488 11.1036 9.48915 11.1642C9.33342 11.2249 9.16711 11.2537 9.00005 11.249C8.67478 11.2398 8.36592 11.1041 8.1391 10.8708C7.91229 10.6375 7.7854 10.3249 7.7854 9.9995C7.7854 9.6741 7.91229 9.36153 8.1391 9.12821C8.36592 8.89488 8.67478 8.7592 9.00005 8.75ZM15 8.75C15.1671 8.74527 15.3334 8.7741 15.4891 8.83476C15.6449 8.89543 15.7869 8.98671 15.9067 9.10321C16.0265 9.2197 16.1218 9.35904 16.1868 9.51299C16.2519 9.66694 16.2854 9.83237 16.2854 9.9995C16.2854 10.1666 16.2519 10.3321 16.1868 10.486C16.1218 10.64 16.0265 10.7793 15.9067 10.8958C15.7869 11.0123 15.6449 11.1036 15.4891 11.1642C15.3334 11.2249 15.1671 11.2537 15 11.249C14.6748 11.2398 14.3659 11.1041 14.1391 10.8708C13.9123 10.6375 13.7854 10.3249 13.7854 9.9995C13.7854 9.6741 13.9123 9.36153 14.1391 9.12821C14.3659 8.89488 14.6748 8.7592 15 8.75Z" fill="#606165" stroke="#606165" stroke-width="0.6"/>
</svg>
