<svg width="16" height="16" viewBox="0 0 16 16" fill="none" xmlns="http://www.w3.org/2000/svg">
<path d="M1.72415 1.053C1.64045 1.01113 1.54668 0.993602 1.45351 1.0024C1.36034 1.01119 1.27151 1.04595 1.19711 1.10274C1.12272 1.15952 1.06576 1.23604 1.03271 1.32359C0.999658 1.41115 0.991841 1.50622 1.01015 1.598L2.41315 6.448C2.43931 6.53838 2.49044 6.61955 2.56067 6.68217C2.6309 6.74479 2.71737 6.78632 2.81015 6.802L8.50015 7.755C8.76815 7.808 8.76815 8.192 8.50015 8.245L2.81015 9.198C2.71737 9.21367 2.6309 9.25521 2.56067 9.31783C2.49044 9.38045 2.43931 9.46161 2.41315 9.552L1.01015 14.402C0.991841 14.4938 0.999658 14.5888 1.03271 14.6764C1.06576 14.764 1.12272 14.8405 1.19711 14.8973C1.27151 14.954 1.36034 14.9888 1.45351 14.9976C1.54668 15.0064 1.64045 14.9889 1.72415 14.947L14.7241 8.447C14.8071 8.40543 14.8768 8.3416 14.9256 8.26266C14.9743 8.18372 15.0001 8.09277 15.0001 8C15.0001 7.90722 14.9743 7.81628 14.9256 7.73733C14.8768 7.65839 14.8071 7.59457 14.7241 7.553L1.72415 1.053Z" fill="#377DFF"/>
</svg>
